# Blender v2.79 (sub 0) OBJ File: 'arrow.blend'
# www.blender.org
o Cube_Cube.002
v -0.089705 -0.056103 3.485705
v -0.089705 0.140918 3.509337
v -0.260060 -0.046890 3.475079
v -0.260060 0.143876 3.480426
v 0.106294 -0.047890 3.496092
v 0.106294 0.149132 3.519723
v 0.261053 -0.046890 3.475079
v 0.261053 0.143876 3.480426
v -0.089705 0.047405 3.556049
v 0.106294 0.055618 3.566436
v -0.009405 -0.047890 3.736711
v -0.009405 0.149132 3.760343
v -0.009405 0.055618 3.807055
v -0.260060 0.048237 3.485105
v 0.000000 -0.046890 3.475079
v 0.000000 0.143876 3.480426
v 0.261053 0.048237 3.485105
v -0.260060 0.418173 3.818692
v -0.062040 -0.013990 2.193512
v -0.260060 0.418173 3.818692
v 0.049069 -0.016064 2.181086
v 0.261053 0.418173 3.818692
v -0.062040 0.029869 2.218113
v -0.000000 -0.013762 2.164176
v 0.000000 0.418173 3.333584
v 0.064408 0.027794 2.205687
v 0.261053 0.418173 3.818692
v 0.000000 0.418173 3.333584
v -0.260060 0.271026 2.491826
v -0.260060 0.271026 2.491826
v 0.261053 0.271026 2.491826
v -0.062040 0.075046 2.218728
v -0.000000 0.271026 2.491826
v 0.064408 0.072971 2.206301
v 0.000000 0.075274 2.189391
v 0.261053 0.271026 2.491826
v -0.000000 0.271026 2.491826
v -0.260060 -0.343741 3.724299
v 0.261053 -0.343741 3.724299
v -0.000000 -0.343741 3.382036
v -0.260060 -0.242175 2.414436
v 0.261053 -0.242175 2.414436
v 0.000000 -0.242175 2.414436
v -0.260060 -0.015603 -2.963349
v -0.260060 -0.068924 -2.960798
v 0.000000 -0.068924 -2.960798
v 0.276392 -0.015603 -2.963349
v 0.261053 -0.068924 -2.960798
v 0.000000 0.020112 -2.935582
v 0.276392 0.020112 -2.935582
v -0.260060 0.020112 -2.935582
v -0.260060 -0.015196 -3.007091
v -0.260060 -0.095745 -2.963959
v 0.000000 -0.095745 -2.963959
v 0.261053 -0.015196 -3.007091
v 0.261053 -0.095745 -2.963959
v 0.000000 0.041202 -2.935079
v 0.261053 0.041202 -2.935079
v -0.260060 0.041202 -2.935079
v -0.260060 -0.020271 -3.073772
v -0.260060 -0.100035 -3.050799
v 0.000000 -0.100035 -3.050799
v 0.261053 -0.020271 -3.073772
v 0.261053 -0.100035 -3.050799
v 0.000000 0.043981 -3.019562
v 0.261053 0.043981 -3.019562
v -0.260060 0.043981 -3.019562
v -0.260060 -0.020160 -3.105370
v -0.260060 -0.180815 -3.040052
v 0.000000 -0.180815 -3.040052
v 0.261053 -0.020160 -3.105370
v 0.261053 -0.180815 -3.040052
v 0.000000 0.124440 -2.991443
v 0.261053 0.124440 -2.991443
v -0.260060 0.124440 -2.991443
v -0.260060 -0.020612 -3.344774
v -0.260060 -0.139833 -3.323234
v 0.000000 -0.139833 -3.323234
v 0.261053 -0.020612 -3.344774
v 0.261053 -0.139833 -3.323234
v 0.000000 0.073543 -3.297862
v 0.261053 0.073543 -3.297862
v -0.260060 0.073543 -3.297862
v -0.260060 -0.021561 -3.440696
v -0.260060 -0.391824 -3.267182
v 0.000000 -0.391824 -3.267182
v 0.261053 -0.021561 -3.440696
v 0.261053 -0.391824 -3.267182
v 0.000000 0.325885 -3.142743
v 0.261053 0.325885 -3.142743
v -0.260060 0.325885 -3.142743
v 0.002233 -0.041870 -4.370439
v -0.140499 -0.168488 -3.900274
v 0.000000 -0.180643 -3.932366
v 0.115809 -0.171845 -3.909979
v 0.000000 0.114939 -3.817654
v 0.074323 0.114939 -3.817654
v -0.073501 0.114939 -3.817654
v 0.052307 0.075201 2.182618
v 0.052307 0.030037 2.181968
v -0.045610 0.075201 2.182618
v 0.000000 0.075201 2.182618
v -0.045611 0.030037 2.181968
v -0.045611 -0.013835 2.157403
v -0.000000 -0.013835 2.157403
v 0.036969 -0.013835 2.157403
v 0.042266 -0.015497 -2.951400
v 0.000000 0.020239 -2.923696
v 0.000000 -0.068796 -2.948911
v 0.042266 0.020239 -2.923696
v -0.035925 0.020239 -2.923696
v -0.035926 -0.015497 -2.951400
v -0.035926 -0.068796 -2.948911
v 0.026927 -0.068796 -2.948911
v -0.130030 0.143876 3.480426
vn -0.1663 0.0482 0.9849
vn 0.0000 0.0000 1.0000
vn 0.3776 -0.5205 0.7658
vn -0.9433 0.1483 0.2969
vn 0.1021 -0.9948 -0.0001
vn -0.0394 0.9990 -0.0201
vn -0.9299 -0.2068 0.3042
vn 0.8645 -0.2825 0.4157
vn 0.8808 0.2116 0.4235
vn 0.8696 -0.1627 0.4662
vn 0.0000 -0.2991 0.9542
vn 0.9882 0.0160 -0.1521
vn 0.2007 0.9737 -0.1080
vn -0.0529 0.0466 0.9975
vn -0.0418 -0.6132 0.7888
vn 1.0000 0.0000 0.0000
vn 0.0000 0.4720 0.8816
vn -0.9851 0.0842 -0.1500
vn -0.7086 0.4537 0.5404
vn 0.0398 -0.6122 0.7897
vn 0.1701 0.8273 -0.5354
vn -0.2517 0.8125 -0.5259
vn 0.0000 0.9999 -0.0108
vn -0.2014 0.9735 -0.1080
vn 0.0000 -0.9945 -0.1044
vn 0.1008 -0.9919 -0.0769
vn 0.1939 -0.7246 -0.6613
vn 0.0000 -0.6956 -0.7184
vn 0.7805 0.6149 -0.1132
vn -1.0000 0.0000 0.0000
vn 0.0000 -0.9999 0.0108
vn 0.0510 0.0331 0.9982
vn 0.6332 0.4751 -0.6111
vn 0.0000 -0.9988 0.0493
vn 0.0000 -0.0239 0.9997
vn 0.0000 -0.1171 0.9931
vn 0.9062 -0.2760 -0.3203
vn 0.0000 0.1319 0.9913
vn 0.0000 0.9995 0.0329
vn 0.0000 -0.9897 -0.1432
vn 0.0000 -0.3299 0.9440
vn 0.0000 0.2171 0.9761
vn 0.0000 0.9865 -0.1639
vn -0.9702 -0.1029 -0.2195
vn 0.0000 -0.9461 -0.3238
vn 0.0000 -0.5237 0.8519
vn 0.0000 0.9620 -0.2729
vn -0.1499 -0.9423 -0.2993
vn 0.8952 0.2902 -0.3384
vn 0.0000 0.9545 -0.2983
vn -0.1499 -0.9424 -0.2992
vn 0.9591 -0.1000 -0.2648
vn -0.8471 0.4695 -0.2492
vn 0.8874 -0.0536 -0.4578
vn -0.0175 -0.9962 -0.0848
vn -0.0021 1.0000 0.0033
vn 0.8907 0.0065 -0.4545
vn -0.9104 0.0060 -0.4138
vn -0.8871 0.2255 -0.4027
vn 0.9438 -0.3306 0.0011
vn 1.0000 0.0000 -0.0020
vn -1.0000 0.0015 -0.0019
vn -1.0000 -0.0001 -0.0019
vn -0.0675 -0.1046 0.9922
vn -0.3280 -0.5310 0.7813
vn -0.3473 0.4191 0.8389
vn -0.8068 0.0080 -0.5908
vn -0.8305 -0.5435 -0.1219
vn 0.1345 -0.1039 0.9855
vn 0.2473 0.0473 0.9678
vn 0.4411 0.4011 0.8029
vn 0.0000 -0.7556 -0.6551
vn 0.0000 -0.9989 -0.0475
vn -0.0086 -1.0000 -0.0041
vn 0.0000 0.9912 -0.1326
vn 0.0000 0.9948 0.1018
vn -0.0419 0.9989 -0.0202
vn 0.0000 -0.7767 0.6298
vn 0.7099 0.4529 0.5394
vn 0.9562 -0.2433 -0.1624
vn 0.0000 0.9851 -0.1722
vn -0.0532 0.0477 0.9974
vn -0.0415 -0.6121 0.7897
vn 0.8363 -0.5350 -0.1200
vn 0.8210 0.0078 -0.5708
vn -0.7603 -0.5046 0.4091
vn -0.9878 0.0163 -0.1546
vn 0.0400 -0.6133 0.7888
vn 0.0000 0.8217 -0.5700
vn 0.0000 0.8125 -0.5830
vn -0.1012 -0.9919 -0.0769
vn 0.0000 -0.7182 -0.6959
vn -0.3014 -0.7043 -0.6428
vn -0.8004 0.5895 -0.1085
vn 0.0507 0.0320 0.9982
vn 0.8718 0.3857 -0.3021
vn -0.9596 0.0707 -0.2723
vn 0.1298 -0.9451 -0.3000
vn 0.1296 -0.9455 -0.2988
vn 0.8440 0.4770 -0.2454
vn 0.0000 -0.9430 -0.3327
vn 0.9586 -0.1209 -0.2580
vn -0.8953 0.2899 -0.3381
vn 0.0021 -1.0000 -0.0033
vn 0.8872 -0.0535 -0.4583
vn 0.0127 0.9961 0.0873
vn 0.8910 0.0062 -0.4540
vn -0.9102 0.0056 -0.4141
vn -0.8873 0.2256 -0.4023
vn 0.9610 -0.2765 0.0011
vn 1.0000 0.0015 -0.0020
vn -1.0000 0.0000 -0.0019
vn -1.0000 0.0011 -0.0019
s off
f 2//1 4//1 14//1
f 4//2 20//2 18//2
f 10//3 5//3 17//3
f 12//4 9//4 13//4
f 11//5 1//5 15//5
f 2//6 12//6 16//6
f 11//7 9//7 1//7
f 10//8 11//8 5//8
f 10//9 12//9 13//9
f 115//10 25//10 20//10
f 3//11 40//11 15//11
f 7//12 26//12 17//12
f 36//13 28//13 27//13
f 112//14 45//14 113//14
f 112//15 51//15 44//15
f 31//16 22//16 8//16
f 8//17 25//17 16//17
f 3//18 23//18 19//18
f 7//19 40//19 39//19
f 107//20 50//20 110//20
f 22//2 36//2 27//2
f 33//21 34//21 35//21
f 32//22 33//22 35//22
f 30//2 37//2 33//2
f 33//2 36//2 31//2
f 18//2 30//2 20//2
f 111//23 49//23 51//23
f 28//24 29//24 18//24
f 40//25 41//25 43//25
f 40//26 42//26 39//26
f 21//27 43//27 24//27
f 19//28 43//28 41//28
f 7//29 42//29 21//29
f 3//30 41//30 38//30
f 114//31 46//31 48//31
f 110//23 49//23 108//23
f 107//32 48//32 47//32
f 113//31 46//31 109//31
f 47//33 58//33 50//33
f 45//30 52//30 53//30
f 52//30 61//30 53//30
f 54//34 64//34 56//34
f 49//35 58//35 57//35
f 45//36 54//36 46//36
f 49//35 59//35 51//35
f 48//37 55//37 47//37
f 51//30 52//30 44//30
f 51//35 58//35 59//35
f 46//36 56//36 48//36
f 61//30 68//30 69//30
f 62//38 72//38 64//38
f 55//16 66//16 58//16
f 58//39 65//39 57//39
f 53//34 62//34 54//34
f 57//39 67//39 59//39
f 55//16 64//16 63//16
f 58//39 67//39 59//39
f 52//30 67//30 60//30
f 68//30 77//30 69//30
f 70//40 80//40 72//40
f 66//16 71//16 74//16
f 66//41 73//41 65//41
f 61//38 70//38 62//38
f 65//41 75//41 67//41
f 64//16 71//16 63//16
f 66//41 75//41 67//41
f 67//30 68//30 60//30
f 77//30 84//30 85//30
f 78//42 88//42 80//42
f 71//16 82//16 74//16
f 74//43 81//43 73//43
f 69//40 78//40 70//40
f 73//43 83//43 75//43
f 71//16 80//16 79//16
f 74//43 83//43 75//43
f 68//30 83//30 76//30
f 84//44 93//44 85//44
f 86//45 95//45 88//45
f 82//16 87//16 90//16
f 82//46 89//46 81//46
f 77//42 86//42 78//42
f 81//46 91//46 83//46
f 80//16 87//16 79//16
f 82//46 91//46 83//46
f 83//30 84//30 76//30
f 98//47 97//47 92//47
f 92//48 94//48 93//48
f 87//49 97//49 90//49
f 89//50 97//50 96//50
f 86//51 93//51 94//51
f 89//50 98//50 91//50
f 87//52 95//52 92//52
f 91//50 97//50 98//50
f 84//53 98//53 92//53
f 24//31 104//31 105//31
f 21//54 100//54 26//54
f 35//23 99//23 102//23
f 24//55 106//55 21//55
f 35//56 101//56 32//56
f 34//57 100//57 99//57
f 23//58 101//58 103//58
f 19//59 103//59 104//59
f 105//31 113//31 109//31
f 106//60 107//60 100//60
f 102//23 110//23 108//23
f 105//31 114//31 106//31
f 102//23 111//23 101//23
f 100//61 110//61 99//61
f 103//62 111//62 112//62
f 104//63 112//63 113//63
f 3//64 1//64 14//64
f 1//65 9//65 14//65
f 9//66 2//66 14//66
f 20//2 29//2 18//2
f 18//30 30//30 4//30
f 30//67 32//67 23//67
f 4//30 30//30 14//30
f 23//68 14//68 30//68
f 5//69 7//69 17//69
f 17//70 8//70 6//70
f 6//71 10//71 17//71
f 12//4 2//4 9//4
f 1//72 3//72 15//72
f 15//73 7//73 5//73
f 5//74 11//74 15//74
f 6//75 8//75 16//75
f 115//76 4//76 2//76
f 6//77 16//77 12//77
f 16//76 115//76 2//76
f 11//7 13//7 9//7
f 10//8 13//8 11//8
f 10//9 6//9 12//9
f 20//78 4//78 115//78
f 115//17 16//17 25//17
f 3//79 38//79 40//79
f 7//80 21//80 26//80
f 36//81 37//81 28//81
f 112//82 44//82 45//82
f 112//83 111//83 51//83
f 8//16 17//16 31//16
f 17//84 26//84 31//84
f 26//85 34//85 31//85
f 8//86 22//86 25//86
f 3//87 14//87 23//87
f 7//11 15//11 40//11
f 107//88 47//88 50//88
f 22//2 31//2 36//2
f 33//89 31//89 34//89
f 32//90 30//90 33//90
f 30//2 29//2 37//2
f 33//2 37//2 36//2
f 18//2 29//2 30//2
f 111//23 108//23 49//23
f 28//81 37//81 29//81
f 40//91 38//91 41//91
f 40//25 43//25 42//25
f 21//92 42//92 43//92
f 19//93 24//93 43//93
f 7//16 39//16 42//16
f 3//94 19//94 41//94
f 114//31 109//31 46//31
f 110//23 50//23 49//23
f 107//95 114//95 48//95
f 113//31 45//31 46//31
f 47//96 55//96 58//96
f 45//30 44//30 52//30
f 52//30 60//30 61//30
f 54//34 62//34 64//34
f 49//35 50//35 58//35
f 45//36 53//36 54//36
f 49//35 57//35 59//35
f 48//16 56//16 55//16
f 51//30 59//30 52//30
f 51//35 50//35 58//35
f 46//36 54//36 56//36
f 61//30 60//30 68//30
f 62//38 70//38 72//38
f 55//16 63//16 66//16
f 58//39 66//39 65//39
f 53//34 61//34 62//34
f 57//39 65//39 67//39
f 55//16 56//16 64//16
f 58//39 66//39 67//39
f 52//30 59//30 67//30
f 68//30 76//30 77//30
f 70//40 78//40 80//40
f 66//16 63//16 71//16
f 66//41 74//41 73//41
f 61//38 69//38 70//38
f 65//41 73//41 75//41
f 64//16 72//16 71//16
f 66//41 74//41 75//41
f 67//30 75//30 68//30
f 77//30 76//30 84//30
f 78//42 86//42 88//42
f 71//16 79//16 82//16
f 74//43 82//43 81//43
f 69//40 77//40 78//40
f 73//43 81//43 83//43
f 71//16 72//16 80//16
f 74//43 82//43 83//43
f 68//30 75//30 83//30
f 84//97 92//97 93//97
f 86//98 94//98 95//98
f 82//16 79//16 87//16
f 82//46 90//46 89//46
f 77//42 85//42 86//42
f 81//46 89//46 91//46
f 80//16 88//16 87//16
f 82//46 90//46 91//46
f 83//30 91//30 84//30
f 92//99 95//99 94//99
f 87//100 92//100 97//100
f 89//50 90//50 97//50
f 86//101 85//101 93//101
f 89//50 96//50 98//50
f 87//102 88//102 95//102
f 91//50 90//50 97//50
f 84//103 91//103 98//103
f 24//104 19//104 104//104
f 21//105 106//105 100//105
f 35//106 34//106 99//106
f 24//31 105//31 106//31
f 35//23 102//23 101//23
f 34//107 26//107 100//107
f 23//108 32//108 101//108
f 19//109 23//109 103//109
f 105//31 104//31 113//31
f 106//110 114//110 107//110
f 102//23 99//23 110//23
f 105//31 109//31 114//31
f 102//23 108//23 111//23
f 100//111 107//111 110//111
f 103//112 101//112 111//112
f 104//113 103//113 112//113
