# Blender v2.79 (sub 0) OBJ File: 'arrow.blend'
# www.blender.org
o Cube_Cube.002
v 1.424558 -0.048688 4.014645
v 1.424558 0.148334 4.038277
v 1.423722 -0.039475 3.546858
v 1.423722 0.151292 3.552206
v 2.935562 -0.040474 4.019230
v 2.935562 0.156548 4.042862
v 2.922918 -0.039475 3.546858
v 2.922918 0.151292 3.552206
v 1.424558 0.054820 4.084990
v 2.935562 0.063034 4.089575
v 2.173320 -0.040474 4.019230
v 2.173320 0.156548 4.042862
v 2.173320 0.063034 4.089575
v 1.423722 0.055652 3.556885
v 2.173320 -0.039475 3.546858
v 2.173320 0.151292 3.552206
v 2.922918 0.055652 3.556885
v 1.423722 0.425589 3.890471
v 1.423722 -0.006346 2.235955
v 1.423722 0.425589 3.890471
v 2.922918 -0.006346 2.235955
v 2.922918 0.425589 3.890471
v 1.423722 0.037513 2.260557
v 2.173320 -0.006346 2.235955
v 2.173320 0.425589 3.890471
v 2.922918 0.037513 2.260557
v 2.173320 0.037513 2.260557
v 2.922918 0.425589 3.890471
v 2.173320 0.425589 3.890471
v 1.423722 0.278441 2.563605
v 1.423722 0.278441 2.563605
v 2.922918 0.278441 2.563605
v 1.423722 0.082689 2.261171
v 2.173320 0.278441 2.563605
v 2.922918 0.082689 2.261171
v 2.173320 0.082689 2.261171
v 2.922918 0.278441 2.563605
v 2.173320 0.278441 2.563605
v 1.423722 -0.336326 3.796079
v 2.922918 -0.336326 3.796079
v 2.173320 -0.336326 3.796079
v 1.423722 -0.234760 2.486215
v 2.922918 -0.234760 2.486215
v 2.173320 -0.234760 2.486215
vn -1.0000 0.0001 0.0017
vn 0.0000 0.0000 1.0000
vn 0.9996 0.0032 -0.0267
vn -0.0104 0.4469 0.8945
vn 0.0110 -0.9999 -0.0021
vn -0.0109 0.9999 -0.0107
vn 0.0011 -0.5621 0.8271
vn 0.0000 -0.5621 0.8271
vn 0.0000 0.4469 0.8946
vn 0.0000 -0.7767 0.6298
vn 0.0000 0.6430 0.7659
vn 1.0000 0.0000 0.0000
vn 0.0000 -0.9939 0.1102
vn 0.0000 0.4892 -0.8722
vn -1.0000 -0.0000 0.0000
vn 0.0000 0.0136 -0.9999
vn 0.0000 0.8395 -0.5434
vn 0.0000 -0.9970 -0.0773
vn 0.0000 -0.7386 -0.6741
vn -1.0000 -0.0002 0.0018
vn 0.9996 0.0028 -0.0268
vn 0.9997 -0.0013 -0.0257
vn 0.0000 -0.9998 -0.0197
vn 0.0000 -1.0000 -0.0021
vn 0.0000 0.9999 -0.0107
vn 0.0000 1.0000 0.0061
s off
f 2//1 4//1 14//1
f 4//2 20//2 18//2
f 17//3 6//3 5//3
f 13//4 2//4 9//4
f 11//5 1//5 15//5
f 2//6 12//6 16//6
f 11//7 9//7 1//7
f 10//8 11//8 5//8
f 6//9 13//9 10//9
f 16//10 20//10 4//10
f 3//11 41//11 15//11
f 7//12 26//12 17//12
f 29//13 37//13 28//13
f 27//14 21//14 24//14
f 23//14 24//14 19//14
f 32//12 22//12 8//12
f 8//10 25//10 16//10
f 3//15 23//15 19//15
f 15//11 40//11 7//11
f 27//16 33//16 36//16
f 22//2 37//2 32//2
f 34//17 35//17 36//17
f 31//17 36//17 33//17
f 31//2 38//2 30//2
f 34//2 37//2 38//2
f 18//2 31//2 30//2
f 27//16 35//16 26//16
f 18//13 38//13 29//13
f 39//18 44//18 41//18
f 41//18 43//18 40//18
f 21//19 44//19 24//19
f 24//19 42//19 19//19
f 7//12 43//12 21//12
f 3//15 42//15 39//15
f 3//20 1//20 14//20
f 1//15 9//15 2//15
f 14//20 1//20 2//20
f 20//2 30//2 18//2
f 18//15 31//15 4//15
f 31//15 33//15 23//15
f 4//15 31//15 14//15
f 23//15 14//15 31//15
f 5//21 7//21 17//21
f 17//22 8//22 6//22
f 6//12 10//12 5//12
f 13//4 12//4 2//4
f 1//23 3//23 15//23
f 15//24 7//24 11//24
f 7//24 5//24 11//24
f 6//25 8//25 12//25
f 8//25 16//25 12//25
f 16//26 4//26 2//26
f 11//7 13//7 9//7
f 10//8 13//8 11//8
f 6//9 12//9 13//9
f 16//10 25//10 20//10
f 3//11 39//11 41//11
f 7//12 21//12 26//12
f 29//13 38//13 37//13
f 27//14 26//14 21//14
f 23//14 27//14 24//14
f 8//12 17//12 32//12
f 17//12 26//12 32//12
f 26//12 35//12 32//12
f 8//10 22//10 25//10
f 3//15 14//15 23//15
f 15//11 41//11 40//11
f 27//16 23//16 33//16
f 22//2 28//2 37//2
f 34//17 32//17 35//17
f 31//17 34//17 36//17
f 31//2 34//2 38//2
f 34//2 32//2 37//2
f 18//2 20//2 31//2
f 27//16 36//16 35//16
f 18//13 30//13 38//13
f 39//18 42//18 44//18
f 41//18 44//18 43//18
f 21//19 43//19 44//19
f 24//19 44//19 42//19
f 7//12 40//12 43//12
f 3//15 19//15 42//15
